# xmcd CD database file
#
# Track frame offsets:
#	150
#	13368
#	26712
#	38347
#	51450
#	61283
#	76789
#	91490
#	104530
#	119169
#	132303
#	149800
#
# Disc length: 2166 seconds
#
# Revision: 5
# Processed by: cddbd v1.5.2PL0 Copyright (c) Steve Scherf et al.
# Submitted via: CDex 2.21
#
DISCID=b008740c
DTITLE=Crystal Gayle - When I Dream
DYEAR=1976
DGENRE=Country
TTITLE0=Why Have You Left The One You Left Me For
TTITLE1=Heart Mender
TTITLE2=Hello I Love You
TTITLE3=Talking In Your Sleep
TTITLE4=Paintin' This Old Town Blue
TTITLE5=When I Dream
TTITLE6=Don't Treat Me Like A Stranger
TTITLE7=Too Good To Throw Away
TTITLE8=Cry Me A River
TTITLE9=The Wayward Wind
TTITLE10=Someday Soon
TTITLE11=I Still Miss Someone
EXTD=YEAR: 1976
EXTT0=
EXTT1=
EXTT2=
EXTT3=
EXTT4=
EXTT5=
EXTT6=
EXTT7=
EXTT8=
EXTT9=
EXTT10=
EXTT11=
PLAYORDER=
